<svg width="16" height="20" viewBox="0 0 16 20" fill="none" xmlns="http://www.w3.org/2000/svg">
<path id="arrow.clockwise" d="M7.60254 9.38281C7.85742 9.38281 8.05957 9.30371 8.21777 9.13672L11.8213 5.50684C12.0146 5.31348 12.1025 5.10254 12.1025 4.85645C12.1025 4.61914 12.0059 4.39062 11.8213 4.21484L8.21777 0.549805C8.05957 0.374023 7.85742 0.286133 7.60254 0.286133C7.12793 0.286133 6.75 0.681641 6.75 1.16504C6.75 1.40234 6.83789 1.5957 6.9873 1.7627L9.08789 3.81934C8.6748 3.75781 8.25293 3.72266 7.83105 3.72266C3.48047 3.72266 0 7.20312 0 11.5625C0 15.9219 3.50684 19.4287 7.85742 19.4287C12.2168 19.4287 15.7148 15.9219 15.7148 11.5625C15.7148 11.0352 15.3457 10.6572 14.8184 10.6572C14.3086 10.6572 13.9658 11.0352 13.9658 11.5625C13.9658 14.9551 11.25 17.6797 7.85742 17.6797C4.47363 17.6797 1.74902 14.9551 1.74902 11.5625C1.74902 8.14355 4.44727 5.43652 7.83105 5.43652C8.40234 5.43652 8.92969 5.48047 9.39551 5.55957L6.99609 7.93262C6.83789 8.09082 6.75 8.28418 6.75 8.52148C6.75 9.00488 7.12793 9.38281 7.60254 9.38281Z" fill="#1C1C1E"/>
</svg>
