<svg width="24" height="24" viewBox="0 0 24 24" fill="none" xmlns="http://www.w3.org/2000/svg">
<g id="Arrow Back">
<path id="Vector" fill-rule="evenodd" clip-rule="evenodd" d="M11.0293 3.97007C11.1698 4.1107 11.2487 4.30132 11.2487 4.50007C11.2487 4.69882 11.1698 4.88945 11.0293 5.03007L4.80934 11.2501H20.9993C21.1983 11.2501 21.389 11.3291 21.5297 11.4697C21.6703 11.6104 21.7493 11.8012 21.7493 12.0001C21.7493 12.199 21.6703 12.3897 21.5297 12.5304C21.389 12.6711 21.1983 12.7501 20.9993 12.7501H4.80934L11.0293 18.9701C11.103 19.0387 11.1621 19.1215 11.2031 19.2135C11.2441 19.3055 11.2662 19.4048 11.2679 19.5056C11.2697 19.6063 11.2512 19.7063 11.2135 19.7997C11.1757 19.8931 11.1196 19.9779 11.0484 20.0491C10.9772 20.1203 10.8923 20.1765 10.7989 20.2142C10.7055 20.2519 10.6055 20.2704 10.5048 20.2687C10.4041 20.2669 10.3048 20.2448 10.2128 20.2039C10.1208 20.1629 10.038 20.1038 9.96934 20.0301L2.46934 12.5301C2.32889 12.3894 2.25 12.1988 2.25 12.0001C2.25 11.8013 2.32889 11.6107 2.46934 11.4701L9.96934 3.97007C10.11 3.82962 10.3006 3.75073 10.4993 3.75073C10.6981 3.75073 10.8887 3.82962 11.0293 3.97007Z" fill="#091E42"/>
</g>
</svg>
