<svg width="24" height="24" viewBox="0 0 24 24" fill="none" xmlns="http://www.w3.org/2000/svg">
<g id="Arrow Back">
<path id="Vector" fill-rule="evenodd" clip-rule="evenodd" d="M11.0293 3.96983C11.1698 4.11045 11.2487 4.30108 11.2487 4.49983C11.2487 4.69858 11.1698 4.8892 11.0293 5.02983L4.80934 11.2498H20.9993C21.1983 11.2498 21.389 11.3288 21.5297 11.4695C21.6703 11.6102 21.7493 11.8009 21.7493 11.9998C21.7493 12.1987 21.6703 12.3895 21.5297 12.5302C21.389 12.6708 21.1983 12.7498 20.9993 12.7498H4.80934L11.0293 18.9698C11.103 19.0385 11.1621 19.1213 11.2031 19.2133C11.2441 19.3053 11.2662 19.4046 11.2679 19.5053C11.2697 19.606 11.2512 19.706 11.2135 19.7994C11.1757 19.8928 11.1196 19.9776 11.0484 20.0489C10.9772 20.1201 10.8923 20.1762 10.7989 20.214C10.7055 20.2517 10.6055 20.2702 10.5048 20.2684C10.4041 20.2666 10.3048 20.2446 10.2128 20.2036C10.1208 20.1626 10.038 20.1035 9.96934 20.0298L2.46934 12.5298C2.32889 12.3892 2.25 12.1986 2.25 11.9998C2.25 11.8011 2.32889 11.6105 2.46934 11.4698L9.96934 3.96983C10.11 3.82938 10.3006 3.75049 10.4993 3.75049C10.6981 3.75049 10.8887 3.82938 11.0293 3.96983Z" fill="#091E42"/>
</g>
</svg>
