<svg width="28" height="29" viewBox="0 0 28 29" fill="none" xmlns="http://www.w3.org/2000/svg">
<g id="arrow.counterclockwise">
<path id="arrow.counterclockwise_2" d="M14.2529 12.9561C14.7275 12.9561 15.1055 12.5781 15.1055 12.0947C15.1055 11.8574 15.0176 11.6641 14.8594 11.5059L12.4688 9.13281C12.9258 9.05371 13.4531 9.00977 14.0244 9.00977C17.4082 9.00977 20.1064 11.7168 20.1064 15.1357C20.1064 18.5283 17.3906 21.2529 13.998 21.2529C10.6143 21.2529 7.88965 18.5283 7.88965 15.1357C7.88965 14.6084 7.54688 14.2305 7.03711 14.2305C6.50977 14.2305 6.14062 14.6084 6.14062 15.1357C6.14062 19.4951 9.64746 23.002 13.998 23.002C18.3574 23.002 21.8555 19.4951 21.8555 15.1357C21.8555 10.7764 18.375 7.2959 14.0244 7.2959C13.6113 7.2959 13.1895 7.33105 12.7676 7.39258L14.8682 5.33594C15.0176 5.16895 15.1055 4.97559 15.1055 4.73828C15.1055 4.25488 14.7363 3.85938 14.2529 3.85938C13.998 3.85938 13.7959 3.94727 13.6377 4.12305L10.0342 7.78809C9.84961 7.96387 9.76172 8.19238 9.76172 8.42969C9.76172 8.67578 9.84082 8.88672 10.0342 9.08008L13.6465 12.71C13.7959 12.877 13.998 12.9561 14.2529 12.9561Z" fill="#1C1C1E"/>
</g>
</svg>
