<svg width="27" height="28" viewBox="0 0 27 28" fill="none" xmlns="http://www.w3.org/2000/svg">
<g id="Close">
<path id="Vector" fill-rule="evenodd" clip-rule="evenodd" d="M6.3357 6.69837C6.49082 6.54344 6.70109 6.45642 6.92033 6.45642C7.13957 6.45642 7.34984 6.54344 7.50496 6.69837L13.5388 12.7322L19.5726 6.69837C19.6484 6.61709 19.7397 6.5519 19.8412 6.50668C19.9427 6.46146 20.0522 6.43715 20.1633 6.43519C20.2744 6.43323 20.3847 6.45366 20.4877 6.49527C20.5907 6.53688 20.6843 6.59881 20.7629 6.67737C20.8414 6.75593 20.9034 6.84951 20.945 6.95252C20.9866 7.05554 21.007 7.16588 21.0051 7.27696C21.0031 7.38804 20.9788 7.49759 20.9336 7.59908C20.8884 7.70056 20.8232 7.79189 20.7419 7.86763L14.7081 13.9015L20.7419 19.9353C20.8232 20.011 20.8884 20.1024 20.9336 20.2038C20.9788 20.3053 21.0031 20.4149 21.0051 20.526C21.007 20.637 20.9866 20.7474 20.945 20.8504C20.9034 20.9534 20.8414 21.047 20.7629 21.1256C20.6843 21.2041 20.5907 21.266 20.4877 21.3077C20.3847 21.3493 20.2744 21.3697 20.1633 21.3677C20.0522 21.3658 19.9427 21.3415 19.8412 21.2962C19.7397 21.251 19.6484 21.1858 19.5726 21.1046L13.5388 15.0707L7.50496 21.1046C7.34813 21.2507 7.1407 21.3302 6.92637 21.3265C6.71204 21.3227 6.50755 21.2359 6.35597 21.0843C6.20439 20.9327 6.11757 20.7282 6.11379 20.5139C6.11001 20.2996 6.18956 20.0921 6.3357 19.9353L12.3695 13.9015L6.3357 7.86763C6.18077 7.71251 6.09375 7.50224 6.09375 7.283C6.09375 7.06377 6.18077 6.85349 6.3357 6.69837Z" fill="#091E42" stroke="#091E42" stroke-width="1.10308"/>
</g>
</svg>
