<svg width="20" height="21" viewBox="0 0 20 21" fill="none" xmlns="http://www.w3.org/2000/svg">
<path fill-rule="evenodd" clip-rule="evenodd" d="M5.99219 5.97455C5.99219 5.6435 6.12228 5.32601 6.35384 5.09192C6.58541 4.85783 6.89947 4.72632 7.22695 4.72632C7.55443 4.72632 7.8685 4.85783 8.10006 5.09192C8.33163 5.32601 8.46172 5.6435 8.46172 5.97455C8.46172 6.3056 8.33163 6.62309 8.10006 6.85718C7.8685 7.09127 7.55443 7.22278 7.22695 7.22278C6.89947 7.22278 6.58541 7.09127 6.35384 6.85718C6.12228 6.62309 5.99219 6.3056 5.99219 5.97455ZM5.99219 10.9675C5.99219 10.6364 6.12228 10.3189 6.35384 10.0848C6.58541 9.85076 6.89947 9.71925 7.22695 9.71925C7.55443 9.71925 7.8685 9.85076 8.10006 10.0848C8.33163 10.3189 8.46172 10.6364 8.46172 10.9675C8.46172 11.2985 8.33163 11.616 8.10006 11.8501C7.8685 12.0842 7.55443 12.2157 7.22695 12.2157C6.89947 12.2157 6.58541 12.0842 6.35384 11.8501C6.12228 11.616 5.99219 11.2985 5.99219 10.9675ZM5.99219 15.9604C5.99219 15.6294 6.12228 15.3119 6.35384 15.0778C6.58541 14.8437 6.89947 14.7122 7.22695 14.7122C7.55443 14.7122 7.8685 14.8437 8.10006 15.0778C8.33163 15.3119 8.46172 15.6294 8.46172 15.9604C8.46172 16.2915 8.33163 16.6089 8.10006 16.843C7.8685 17.0771 7.55443 17.2086 7.22695 17.2086C6.89947 17.2086 6.58541 17.0771 6.35384 16.843C6.12228 16.6089 5.99219 16.2915 5.99219 15.9604Z" fill="#7A8699"/>
<path fill-rule="evenodd" clip-rule="evenodd" d="M11.7539 5.97455C11.7539 5.6435 11.884 5.32601 12.1156 5.09192C12.3471 4.85783 12.6612 4.72632 12.9887 4.72632C13.3162 4.72632 13.6302 4.85783 13.8618 5.09192C14.0933 5.32601 14.2234 5.6435 14.2234 5.97455C14.2234 6.3056 14.0933 6.62309 13.8618 6.85718C13.6302 7.09127 13.3162 7.22278 12.9887 7.22278C12.6612 7.22278 12.3471 7.09127 12.1156 6.85718C11.884 6.62309 11.7539 6.3056 11.7539 5.97455ZM11.7539 10.9675C11.7539 10.6364 11.884 10.3189 12.1156 10.0848C12.3471 9.85076 12.6612 9.71925 12.9887 9.71925C13.3162 9.71925 13.6302 9.85076 13.8618 10.0848C14.0933 10.3189 14.2234 10.6364 14.2234 10.9675C14.2234 11.2985 14.0933 11.616 13.8618 11.8501C13.6302 12.0842 13.3162 12.2157 12.9887 12.2157C12.6612 12.2157 12.3471 12.0842 12.1156 11.8501C11.884 11.616 11.7539 11.2985 11.7539 10.9675ZM11.7539 15.9604C11.7539 15.6294 11.884 15.3119 12.1156 15.0778C12.3471 14.8437 12.6612 14.7122 12.9887 14.7122C13.3162 14.7122 13.6302 14.8437 13.8618 15.0778C14.0933 15.3119 14.2234 15.6294 14.2234 15.9604C14.2234 16.2915 14.0933 16.6089 13.8618 16.843C13.6302 17.0771 13.3162 17.2086 12.9887 17.2086C12.6612 17.2086 12.3471 17.0771 12.1156 16.843C11.884 16.6089 11.7539 16.2915 11.7539 15.9604Z" fill="#7A8699"/>
</svg>
