<svg width="21" height="21" viewBox="0 0 21 21" fill="none" xmlns="http://www.w3.org/2000/svg">
<path fill-rule="evenodd" clip-rule="evenodd" d="M6.53125 5.97455C6.53125 5.6435 6.66134 5.32601 6.8929 5.09192C7.12447 4.85783 7.43854 4.72632 7.76602 4.72632C8.0935 4.72632 8.40756 4.85783 8.63913 5.09192C8.87069 5.32601 9.00078 5.6435 9.00078 5.97455C9.00078 6.3056 8.87069 6.62309 8.63913 6.85718C8.40756 7.09127 8.0935 7.22278 7.76602 7.22278C7.43854 7.22278 7.12447 7.09127 6.8929 6.85718C6.66134 6.62309 6.53125 6.3056 6.53125 5.97455ZM6.53125 10.9675C6.53125 10.6364 6.66134 10.3189 6.8929 10.0848C7.12447 9.85076 7.43854 9.71925 7.76602 9.71925C8.0935 9.71925 8.40756 9.85076 8.63913 10.0848C8.87069 10.3189 9.00078 10.6364 9.00078 10.9675C9.00078 11.2985 8.87069 11.616 8.63913 11.8501C8.40756 12.0842 8.0935 12.2157 7.76602 12.2157C7.43854 12.2157 7.12447 12.0842 6.8929 11.8501C6.66134 11.616 6.53125 11.2985 6.53125 10.9675ZM6.53125 15.9604C6.53125 15.6294 6.66134 15.3119 6.8929 15.0778C7.12447 14.8437 7.43854 14.7122 7.76602 14.7122C8.0935 14.7122 8.40756 14.8437 8.63913 15.0778C8.87069 15.3119 9.00078 15.6294 9.00078 15.9604C9.00078 16.2915 8.87069 16.6089 8.63913 16.843C8.40756 17.0771 8.0935 17.2086 7.76602 17.2086C7.43854 17.2086 7.12447 17.0771 6.8929 16.843C6.66134 16.6089 6.53125 16.2915 6.53125 15.9604Z" fill="#7A8699"/>
<path fill-rule="evenodd" clip-rule="evenodd" d="M12.293 5.97455C12.293 5.6435 12.4231 5.32601 12.6546 5.09192C12.8862 4.85783 13.2003 4.72632 13.5277 4.72632C13.8552 4.72632 14.1693 4.85783 14.4008 5.09192C14.6324 5.32601 14.7625 5.6435 14.7625 5.97455C14.7625 6.3056 14.6324 6.62309 14.4008 6.85718C14.1693 7.09127 13.8552 7.22278 13.5277 7.22278C13.2003 7.22278 12.8862 7.09127 12.6546 6.85718C12.4231 6.62309 12.293 6.3056 12.293 5.97455ZM12.293 10.9675C12.293 10.6364 12.4231 10.3189 12.6546 10.0848C12.8862 9.85076 13.2003 9.71925 13.5277 9.71925C13.8552 9.71925 14.1693 9.85076 14.4008 10.0848C14.6324 10.3189 14.7625 10.6364 14.7625 10.9675C14.7625 11.2985 14.6324 11.616 14.4008 11.8501C14.1693 12.0842 13.8552 12.2157 13.5277 12.2157C13.2003 12.2157 12.8862 12.0842 12.6546 11.8501C12.4231 11.616 12.293 11.2985 12.293 10.9675ZM12.293 15.9604C12.293 15.6294 12.4231 15.3119 12.6546 15.0778C12.8862 14.8437 13.2003 14.7122 13.5277 14.7122C13.8552 14.7122 14.1693 14.8437 14.4008 15.0778C14.6324 15.3119 14.7625 15.6294 14.7625 15.9604C14.7625 16.2915 14.6324 16.6089 14.4008 16.843C14.1693 17.0771 13.8552 17.2086 13.5277 17.2086C13.2003 17.2086 12.8862 17.0771 12.6546 16.843C12.4231 16.6089 12.293 16.2915 12.293 15.9604Z" fill="#7A8699"/>
</svg>
