<svg width="21" height="21" viewBox="0 0 21 21" fill="none" xmlns="http://www.w3.org/2000/svg">
<path fill-rule="evenodd" clip-rule="evenodd" d="M6.07422 5.97431C6.07422 5.64325 6.20431 5.32576 6.43587 5.09167C6.66744 4.85758 6.9815 4.72607 7.30898 4.72607C7.63646 4.72607 7.95053 4.85758 8.1821 5.09167C8.41366 5.32576 8.54375 5.64325 8.54375 5.97431C8.54375 6.30536 8.41366 6.62285 8.1821 6.85694C7.95053 7.09103 7.63646 7.22254 7.30898 7.22254C6.9815 7.22254 6.66744 7.09103 6.43587 6.85694C6.20431 6.62285 6.07422 6.30536 6.07422 5.97431ZM6.07422 10.9672C6.07422 10.6362 6.20431 10.3187 6.43587 10.0846C6.66744 9.85051 6.9815 9.719 7.30898 9.719C7.63646 9.719 7.95053 9.85051 8.1821 10.0846C8.41366 10.3187 8.54375 10.6362 8.54375 10.9672C8.54375 11.2983 8.41366 11.6158 8.1821 11.8499C7.95053 12.084 7.63646 12.2155 7.30898 12.2155C6.9815 12.2155 6.66744 12.084 6.43587 11.8499C6.20431 11.6158 6.07422 11.2983 6.07422 10.9672ZM6.07422 15.9602C6.07422 15.6291 6.20431 15.3116 6.43587 15.0775C6.66744 14.8434 6.9815 14.7119 7.30898 14.7119C7.63646 14.7119 7.95053 14.8434 8.1821 15.0775C8.41366 15.3116 8.54375 15.6291 8.54375 15.9602C8.54375 16.2912 8.41366 16.6087 8.1821 16.8428C7.95053 17.0769 7.63646 17.2084 7.30898 17.2084C6.9815 17.2084 6.66744 17.0769 6.43587 16.8428C6.20431 16.6087 6.07422 16.2912 6.07422 15.9602Z" fill="#7A8699"/>
<path fill-rule="evenodd" clip-rule="evenodd" d="M11.8359 5.97431C11.8359 5.64325 11.966 5.32576 12.1976 5.09167C12.4292 4.85758 12.7432 4.72607 13.0707 4.72607C13.3982 4.72607 13.7123 4.85758 13.9438 5.09167C14.1754 5.32576 14.3055 5.64325 14.3055 5.97431C14.3055 6.30536 14.1754 6.62285 13.9438 6.85694C13.7123 7.09103 13.3982 7.22254 13.0707 7.22254C12.7432 7.22254 12.4292 7.09103 12.1976 6.85694C11.966 6.62285 11.8359 6.30536 11.8359 5.97431ZM11.8359 10.9672C11.8359 10.6362 11.966 10.3187 12.1976 10.0846C12.4292 9.85051 12.7432 9.719 13.0707 9.719C13.3982 9.719 13.7123 9.85051 13.9438 10.0846C14.1754 10.3187 14.3055 10.6362 14.3055 10.9672C14.3055 11.2983 14.1754 11.6158 13.9438 11.8499C13.7123 12.084 13.3982 12.2155 13.0707 12.2155C12.7432 12.2155 12.4292 12.084 12.1976 11.8499C11.966 11.6158 11.8359 11.2983 11.8359 10.9672ZM11.8359 15.9602C11.8359 15.6291 11.966 15.3116 12.1976 15.0775C12.4292 14.8434 12.7432 14.7119 13.0707 14.7119C13.3982 14.7119 13.7123 14.8434 13.9438 15.0775C14.1754 15.3116 14.3055 15.6291 14.3055 15.9602C14.3055 16.2912 14.1754 16.6087 13.9438 16.8428C13.7123 17.0769 13.3982 17.2084 13.0707 17.2084C12.7432 17.2084 12.4292 17.0769 12.1976 16.8428C11.966 16.6087 11.8359 16.2912 11.8359 15.9602Z" fill="#7A8699"/>
</svg>
