<svg width="24" height="25" viewBox="0 0 24 25" fill="none" xmlns="http://www.w3.org/2000/svg">
<g id="Icon">
<g id="Group">
<path id="Vector" d="M11.9992 12.5002V21.5002M11.9992 12.5002L9.49923 14.5002M11.9992 12.5002L14.4992 14.5002M5.03323 9.61719C4.08744 9.85518 3.26111 10.4303 2.70948 11.2346C2.15786 12.0389 1.91891 13.0169 2.03754 13.985C2.15616 14.953 2.62419 15.8444 3.35369 16.4917C4.0832 17.139 5.02396 17.4976 5.99923 17.5002H6.99923" stroke="#191D23" stroke-width="2" stroke-linecap="round" stroke-linejoin="round"/>
<path id="Vector_2" d="M15.8287 7.63821C15.4869 6.28478 14.6433 5.11195 13.4688 4.35746C12.2944 3.60298 10.877 3.3233 9.50395 3.57511C8.13093 3.82692 6.90503 4.59139 6.07476 5.71354C5.24448 6.8357 4.87195 8.23157 5.03269 9.61821C5.03269 9.61821 5.18569 10.5002 5.49869 11.0002" stroke="#191D23" stroke-width="2" stroke-linecap="round" stroke-linejoin="round"/>
<path id="Vector_3" d="M17 17.5C17.706 17.4995 18.404 17.3495 19.0479 17.0599C19.6917 16.7702 20.267 16.3475 20.7357 15.8195C21.2045 15.2915 21.5561 14.6702 21.7674 13.9965C21.9787 13.3229 22.045 12.6121 21.9618 11.9109C21.8786 11.2098 21.6479 10.5343 21.2848 9.92874C20.9217 9.32321 20.4345 8.80145 19.8552 8.39778C19.276 7.99412 18.6178 7.71772 17.924 7.58676C17.2302 7.4558 16.5166 7.47327 15.83 7.638L14.5 8" stroke="#191D23" stroke-width="2" stroke-linecap="round" stroke-linejoin="round"/>
</g>
</g>
</svg>
