<svg width="29" height="29" viewBox="0 0 29 29" fill="none" xmlns="http://www.w3.org/2000/svg">
<g id="list.triangle">
<path id="list.triangle_2" d="M6.05664 10.5833L7.73535 9.59891C8.07812 9.38797 8.06934 8.8782 7.73535 8.68484L6.05664 7.66531C5.63477 7.41922 5.19531 7.56863 5.19531 8.06082V10.2054C5.19531 10.68 5.63477 10.8294 6.05664 10.5833ZM11.1895 9.95926H22.5098C22.9844 9.95926 23.3623 9.59012 23.3623 9.11551C23.3623 8.6409 22.9932 8.27176 22.5098 8.27176H11.1895C10.7236 8.27176 10.3457 8.6409 10.3457 9.11551C10.3457 9.59012 10.7148 9.95926 11.1895 9.95926ZM6.05664 15.9798L7.73535 14.9866C8.07812 14.7845 8.06934 14.2747 7.73535 14.0725L6.05664 13.0618C5.63477 12.8069 5.19531 12.9563 5.19531 13.4485V15.593C5.19531 16.0677 5.63477 16.2171 6.05664 15.9798ZM11.1895 15.3645H22.5098C22.9844 15.3645 23.3623 14.9954 23.3623 14.5208C23.3623 14.0462 22.9932 13.677 22.5098 13.677H11.1895C10.7236 13.677 10.3457 14.0462 10.3457 14.5208C10.3457 14.9954 10.7148 15.3645 11.1895 15.3645ZM6.05664 21.3938L7.73535 20.4095C8.07812 20.1985 8.06934 19.6887 7.73535 19.4954L6.05664 18.4759C5.63477 18.2298 5.19531 18.3792 5.19531 18.8714V21.0071C5.19531 21.4905 5.63477 21.6399 6.05664 21.3938ZM11.1895 20.7698H22.5098C22.9844 20.7698 23.3623 20.4007 23.3623 19.9261C23.3623 19.4514 22.9932 19.0823 22.5098 19.0823H11.1895C10.7236 19.0823 10.3457 19.4514 10.3457 19.9261C10.3457 20.4007 10.7148 20.7698 11.1895 20.7698Z" fill="#1C1C1E"/>
</g>
</svg>
