<svg width="29" height="29" viewBox="0 0 29 29" fill="none" xmlns="http://www.w3.org/2000/svg">
<g id="list.bullet">
<path id="list.bullet_2" d="M6.44336 10.3633C7.1377 10.3633 7.69141 9.80957 7.69141 9.11523C7.69141 8.42969 7.1377 7.86719 6.44336 7.86719C5.75781 7.86719 5.19531 8.42969 5.19531 9.11523C5.19531 9.80957 5.75781 10.3633 6.44336 10.3633ZM10.5742 9.95898H22.5098C22.9844 9.95898 23.3623 9.58984 23.3623 9.11523C23.3623 8.64062 22.9932 8.27148 22.5098 8.27148H10.5742C10.1084 8.27148 9.73047 8.64062 9.73047 9.11523C9.73047 9.58984 10.0996 9.95898 10.5742 9.95898ZM6.44336 15.7686C7.1377 15.7686 7.69141 15.2148 7.69141 14.5205C7.69141 13.835 7.1377 13.2725 6.44336 13.2725C5.75781 13.2725 5.19531 13.835 5.19531 14.5205C5.19531 15.2148 5.75781 15.7686 6.44336 15.7686ZM10.5742 15.3643H22.5098C22.9844 15.3643 23.3623 14.9951 23.3623 14.5205C23.3623 14.0459 22.9932 13.6768 22.5098 13.6768H10.5742C10.1084 13.6768 9.73047 14.0459 9.73047 14.5205C9.73047 14.9951 10.0996 15.3643 10.5742 15.3643ZM6.44336 21.1738C7.1377 21.1738 7.69141 20.6201 7.69141 19.9258C7.69141 19.2402 7.1377 18.6777 6.44336 18.6777C5.75781 18.6777 5.19531 19.2402 5.19531 19.9258C5.19531 20.6201 5.75781 21.1738 6.44336 21.1738ZM10.5742 20.7695H22.5098C22.9844 20.7695 23.3623 20.4004 23.3623 19.9258C23.3623 19.4512 22.9932 19.082 22.5098 19.082H10.5742C10.1084 19.082 9.73047 19.4512 9.73047 19.9258C9.73047 20.4004 10.0996 20.7695 10.5742 20.7695Z" fill="#1C1C1E"/>
</g>
</svg>
