<svg width="29" height="29" viewBox="0 0 29 29" fill="none" xmlns="http://www.w3.org/2000/svg">
<g id="list.number">
<path id="list.number_2" d="M7.16406 10.9785C7.52441 10.9785 7.77051 10.7852 7.77051 10.3457V7.48926C7.77051 7.09375 7.48926 6.84766 7.08496 6.84766C6.75977 6.84766 6.55762 6.96191 6.32031 7.11133L5.69629 7.54199C5.50293 7.66504 5.41504 7.78809 5.41504 7.99023C5.41504 8.23633 5.59961 8.40332 5.81055 8.39453C5.9248 8.39453 5.98633 8.37695 6.13574 8.27148L6.53125 8.00781H6.54883V10.3457C6.54883 10.7852 6.79492 10.9785 7.16406 10.9785ZM10.917 9.95898H22.5098C22.9844 9.95898 23.3623 9.58984 23.3623 9.11523C23.3623 8.64062 22.9932 8.27148 22.5098 8.27148H10.917C10.4424 8.27148 10.0732 8.64062 10.0732 9.11523C10.0732 9.58984 10.4424 9.95898 10.917 9.95898ZM5.72266 16.3662H8.03418C8.28906 16.3662 8.49121 16.1904 8.49121 15.918C8.49121 15.6367 8.29785 15.4609 8.03418 15.4609H6.79492V15.4434L7.50684 14.8721C8.11328 14.3799 8.36816 14.0986 8.36816 13.5625C8.36816 12.833 7.75293 12.3496 6.76855 12.3496C5.89844 12.3496 5.27441 12.7891 5.27441 13.3604C5.27441 13.6592 5.46777 13.8174 5.78418 13.8174C5.98633 13.8174 6.13574 13.7471 6.26758 13.5537C6.39941 13.3516 6.55762 13.2461 6.78613 13.2461C7.03223 13.2461 7.20801 13.4043 7.20801 13.6416C7.20801 13.8525 7.10254 14.0195 6.64551 14.3975L5.47656 15.3467C5.30078 15.4961 5.22168 15.6543 5.22168 15.8652C5.22168 16.1553 5.41504 16.3662 5.72266 16.3662ZM10.917 15.3643H22.5098C22.9844 15.3643 23.3623 14.9951 23.3623 14.5205C23.3623 14.0459 22.9932 13.6768 22.5098 13.6768H10.917C10.4424 13.6768 10.0732 14.0459 10.0732 14.5205C10.0732 14.9951 10.4424 15.3643 10.917 15.3643ZM6.78613 21.9121C7.87598 21.9121 8.50879 21.4375 8.50879 20.6816C8.50879 20.1807 8.16602 19.8467 7.54199 19.7939V19.7676C7.99023 19.6797 8.35059 19.3721 8.35059 18.8535C8.35059 18.1592 7.66504 17.79 6.77734 17.79C6.07422 17.79 5.29199 18.1064 5.29199 18.7129C5.29199 18.9766 5.48535 19.1611 5.7666 19.1611C5.96875 19.1611 6.06543 19.082 6.18848 18.9502C6.39941 18.7305 6.56641 18.6689 6.77734 18.6689C7.04102 18.6689 7.23438 18.792 7.23438 19.0469C7.23438 19.2842 7.04102 19.4072 6.68945 19.4072H6.5752C6.3291 19.4072 6.16211 19.5391 6.16211 19.8115C6.16211 20.0664 6.32031 20.207 6.5752 20.207H6.69824C7.07617 20.207 7.27832 20.3301 7.28711 20.5938C7.28711 20.8311 7.06738 20.9893 6.78613 20.9893C6.46973 20.9893 6.25 20.8135 6.08301 20.6641C5.97754 20.5674 5.88086 20.4883 5.71387 20.4883C5.40625 20.4883 5.19531 20.6641 5.19531 20.9629C5.19531 21.5693 6.03906 21.9121 6.78613 21.9121ZM10.917 20.7695H22.5098C22.9844 20.7695 23.3623 20.4004 23.3623 19.9258C23.3623 19.4512 22.9932 19.082 22.5098 19.082H10.917C10.4424 19.082 10.0732 19.4512 10.0732 19.9258C10.0732 20.4004 10.4424 20.7695 10.917 20.7695Z" fill="#1C1C1E"/>
</g>
</svg>
