<svg width="48" height="48" viewBox="0 0 48 48" fill="none" xmlns="http://www.w3.org/2000/svg">
<g id="Frame">
<path id="Vector" d="M21.9754 32.1474L14.3894 24.5614C14.0122 24.1971 13.507 23.9955 12.9826 24.0001C12.4582 24.0046 11.9566 24.215 11.5858 24.5858C11.215 24.9566 11.0046 25.4582 11.0001 25.9826C10.9955 26.507 11.1971 27.0122 11.5614 27.3894L20.5614 36.3894C20.9365 36.7644 21.4451 36.975 21.9754 36.975C22.5058 36.975 23.0144 36.7644 23.3894 36.3894L45.3894 14.3894C45.7537 14.0122 45.9553 13.507 45.9508 12.9826C45.9462 12.4582 45.7359 11.9566 45.3651 11.5858C44.9942 11.215 44.4926 11.0046 43.9682 11.0001C43.4438 10.9955 42.9386 11.1971 42.5614 11.5614L21.9754 32.1474Z" fill="white"/>
</g>
</svg>
