<svg width="25" height="24" viewBox="0 0 25 24" fill="none" xmlns="http://www.w3.org/2000/svg">
<g id="more">
<path id="Vector" d="M11.4419 4.69185C11.0949 5.03879 10.9 5.50935 10.9 6C10.9 6.49065 11.0949 6.96121 11.4419 7.30815C11.7888 7.65509 12.2593 7.85 12.75 7.85C13.2407 7.85 13.7112 7.65509 14.0581 7.30815C14.4051 6.96121 14.6 6.49065 14.6 6C14.6 5.50935 14.4051 5.03879 14.0581 4.69185C13.7112 4.34491 13.2407 4.15 12.75 4.15C12.2593 4.15 11.7888 4.34491 11.4419 4.69185ZM11.4419 10.6919C11.0949 11.0388 10.9 11.5093 10.9 12C10.9 12.4907 11.0949 12.9612 11.4419 13.3081C11.7888 13.6551 12.2593 13.85 12.75 13.85C13.2407 13.85 13.7112 13.6551 14.0581 13.3081C14.4051 12.9612 14.6 12.4907 14.6 12C14.6 11.5093 14.4051 11.0388 14.0581 10.6919C13.7112 10.3449 13.2407 10.15 12.75 10.15C12.2593 10.15 11.7888 10.3449 11.4419 10.6919ZM11.4419 16.6919C11.0949 17.0388 10.9 17.5093 10.9 18C10.9 18.4907 11.0949 18.9612 11.4419 19.3081C11.7888 19.6551 12.2593 19.85 12.75 19.85C13.2407 19.85 13.7112 19.6551 14.0581 19.3081C14.4051 18.9612 14.6 18.4907 14.6 18C14.6 17.5093 14.4051 17.0388 14.0581 16.6919C13.7112 16.3449 13.2407 16.15 12.75 16.15C12.2593 16.15 11.7888 16.3449 11.4419 16.6919Z" fill="#091E42" stroke="#091E42" stroke-width="0.7"/>
</g>
</svg>
