<svg width="19" height="19" viewBox="0 0 19 19" fill="none" xmlns="http://www.w3.org/2000/svg">
<g id="orientation-landscape--photos-photo-orientation-landscape-picture-photography-camera-pictures-image">
<path id="Vector" d="M2.21205 16.2861L16.3549 16.2861C17.065 16.2861 17.6406 15.7105 17.6406 15.0004V4.7147C17.6406 4.00462 17.065 3.42899 16.3549 3.42899L2.21205 3.42899C1.50197 3.42899 0.926338 4.00462 0.926338 4.7147V15.0004C0.926338 15.7105 1.50197 16.2861 2.21205 16.2861Z" stroke="black" stroke-linecap="round" stroke-linejoin="round"/>
<path id="Vector_2" d="M12.5033 8.8445C13.3875 8.8445 14.1043 8.12773 14.1043 7.24354C14.1043 6.35935 13.3875 5.64258 12.5033 5.64258C11.6191 5.64258 10.9023 6.35935 10.9023 7.24354C10.9023 8.12773 11.6191 8.8445 12.5033 8.8445Z" stroke="black" stroke-linecap="round" stroke-linejoin="round"/>
<path id="Vector_3" d="M11.9646 16.2863C11.5653 14.1599 10.4236 12.2445 8.74305 10.8819C7.0625 9.51933 4.95249 8.79815 2.7895 8.84706C2.16544 8.84539 1.54266 8.90352 0.929688 9.02064" stroke="black" stroke-linecap="round" stroke-linejoin="round"/>
<path id="Vector_4" d="M17.6415 12.3525C16.6288 12.0105 15.5669 11.8363 14.4981 11.8369C13.1451 11.834 11.8058 12.1078 10.5625 12.6417" stroke="black" stroke-linecap="round" stroke-linejoin="round"/>
</g>
</svg>
