<svg width="29" height="29" viewBox="0 0 29 29" fill="none" xmlns="http://www.w3.org/2000/svg">
<g id="paragraphsign">
<path id="paragraphsign_2" d="M6.82422 10.7852C6.82422 13.4834 8.7666 15.2764 11.7109 15.2764H12.8799V22.1143C12.8799 22.7559 13.2578 23.1514 13.8818 23.1514C14.4971 23.1514 14.8926 22.7559 14.8926 22.1143V8.31543H16.6855V22.1143C16.6855 22.7559 17.0635 23.1514 17.6875 23.1514C18.3027 23.1514 18.6982 22.7559 18.6982 22.1143V8.31543H20.043C20.6758 8.31543 21.0801 7.91992 21.0801 7.2959C21.0801 6.68066 20.6758 6.30273 20.043 6.30273H11.6143C8.73145 6.30273 6.82422 8.08691 6.82422 10.7852Z" fill="#1C1C1E"/>
</g>
</svg>
