<svg width="26" height="26" viewBox="0 0 26 26" fill="none" xmlns="http://www.w3.org/2000/svg">
<path fill-rule="evenodd" clip-rule="evenodd" d="M11.6065 4.39715C10.6633 4.39715 9.72931 4.58292 8.85792 4.94387C7.98652 5.30481 7.19476 5.83385 6.52782 6.50078C5.86089 7.16772 5.33184 7.95949 4.9709 8.83088C4.60996 9.70227 4.42418 10.6362 4.42418 11.5794C4.42418 12.5226 4.60996 13.4566 4.9709 14.3279C5.33184 15.1993 5.86089 15.9911 6.52782 16.658C7.19476 17.325 7.98652 17.854 8.85792 18.215C9.72931 18.5759 10.6633 18.7617 11.6065 18.7617C13.5113 18.7617 15.3381 18.005 16.6851 16.658C18.032 15.3111 18.7887 13.4843 18.7887 11.5794C18.7887 9.67456 18.032 7.84772 16.6851 6.50078C15.3381 5.15385 13.5113 4.39715 11.6065 4.39715ZM2.82813 11.5794C2.82831 10.1697 3.16802 8.78069 3.81852 7.53C4.46902 6.2793 5.41117 5.20367 6.56528 4.39408C7.71939 3.5845 9.05151 3.06478 10.4489 2.8789C11.8464 2.69301 13.268 2.84642 14.5937 3.32615C15.9193 3.80587 17.1098 4.59781 18.0647 5.63497C19.0195 6.67212 19.7105 7.92399 20.0792 9.28466C20.4479 10.6453 20.4835 12.0748 20.1829 13.4521C19.8824 14.8295 19.2545 16.1142 18.3525 17.1975L23.3428 22.1879C23.4212 22.2609 23.4841 22.349 23.5277 22.4469C23.5713 22.5448 23.5948 22.6505 23.5967 22.7577C23.5986 22.8648 23.5789 22.9712 23.5387 23.0706C23.4986 23.17 23.4388 23.2602 23.3631 23.336C23.2873 23.4118 23.197 23.4715 23.0976 23.5117C22.9983 23.5518 22.8918 23.5715 22.7847 23.5696C22.6775 23.5677 22.5719 23.5443 22.474 23.5007C22.3761 23.4571 22.288 23.3942 22.2149 23.3158L17.2246 18.3254C15.9426 19.3932 14.383 20.0735 12.7283 20.2867C11.0736 20.4999 9.39242 20.2372 7.88168 19.5293C6.37095 18.8214 5.09324 17.6976 4.19822 16.2896C3.3032 14.8817 2.82794 13.2478 2.82813 11.5794Z" fill="#0047B3"/>
</svg>
