<svg width="91" height="37" viewBox="0 0 91 37" fill="none" xmlns="http://www.w3.org/2000/svg">
<g id="SNT">
<path d="M14.3738 36.6174C11.6032 36.6174 8.94804 36.2546 6.40832 35.529C3.86861 34.7704 1.82365 33.7974 0.273438 32.61L2.99456 26.574C4.4788 27.6295 6.22692 28.5035 8.2389 29.1962C10.2839 29.8559 12.3453 30.1857 14.4233 30.1857C16.0065 30.1857 17.2763 30.0373 18.2328 29.7404C19.2223 29.4106 19.948 28.9653 20.4097 28.4046C20.8715 27.8439 21.1024 27.2007 21.1024 26.4751C21.1024 25.5515 20.7396 24.8259 20.0139 24.2982C19.2883 23.7375 18.3318 23.2922 17.1444 22.9624C15.957 22.5995 14.6376 22.2697 13.1864 21.9729C11.7681 21.643 10.3333 21.2472 8.88207 20.7855C7.46379 20.3237 6.16095 19.73 4.97355 19.0044C3.78616 18.2787 2.81315 17.3222 2.05453 16.1348C1.3289 14.9474 0.966086 13.4302 0.966086 11.5831C0.966086 9.60414 1.49382 7.80655 2.54928 6.19037C3.63773 4.54121 5.25391 3.23837 7.39782 2.28185C9.57472 1.29236 12.2958 0.797607 15.5612 0.797607C17.7381 0.797607 19.882 1.06147 21.9929 1.5892C24.1038 2.08395 25.9674 2.84257 27.5836 3.86505L25.1098 9.95046C23.4937 9.02693 21.8775 8.35077 20.2613 7.92199C18.6451 7.46023 17.0619 7.22934 15.5117 7.22934C13.9615 7.22934 12.6916 7.41075 11.7021 7.77357C10.7126 8.13638 10.0035 8.61464 9.57472 9.20834C9.14594 9.76905 8.93154 10.4287 8.93154 11.1873C8.93154 12.0779 9.29436 12.8035 10.02 13.3642C10.7456 13.892 11.7021 14.3207 12.8895 14.6506C14.0769 14.9804 15.3798 15.3102 16.7981 15.6401C18.2493 15.9699 19.6841 16.3492 21.1024 16.778C22.5536 17.2068 23.873 17.784 25.0604 18.5096C26.2478 19.2353 27.2043 20.1918 27.9299 21.3792C28.6885 22.5666 29.0678 24.0673 29.0678 25.8814C29.0678 27.8274 28.5236 29.6085 27.4352 31.2247C26.3467 32.8408 24.714 34.1437 22.5371 35.1332C20.3932 36.1227 17.6721 36.6174 14.3738 36.6174Z" fill="white"/>
<path d="M29.597 36.0237V1.3913H36.2266L56.6597 26.3267H53.4439V1.3913H61.3599V36.0237H54.7797L34.2971 11.0884H37.513V36.0237H29.597Z" fill="white"/>
<path d="M71.7801 36.0237V7.92199H60.6977V1.3913H90.8774V7.92199H79.795V36.0237H71.7801Z" fill="white"/>
</g>
</svg>
