<svg width="33" height="32" viewBox="0 0 33 32" fill="none" xmlns="http://www.w3.org/2000/svg">
<g id="symbol">
<path id="icon link" d="M17.854 19.1697C17.8229 19.139 17.781 19.1217 17.7373 19.1217C17.6936 19.1217 17.6517 19.139 17.6207 19.1697L15.2215 21.569C14.1107 22.6799 12.236 22.7976 11.0096 21.569C9.78113 20.3405 9.89882 18.4677 11.0096 17.3568L13.4087 14.9575C13.4728 14.8934 13.4728 14.7881 13.4087 14.7241L12.587 13.9023C12.556 13.8716 12.514 13.8543 12.4704 13.8543C12.4267 13.8543 12.3847 13.8716 12.3537 13.9023L9.95456 16.3017C8.20785 18.0485 8.20785 20.8753 9.95456 22.62C11.7013 24.3648 14.5278 24.3669 16.2724 22.62L18.6716 20.2207C18.7356 20.1567 18.7356 20.0514 18.6716 19.9874L17.854 19.1697ZM23.1932 9.3824C21.4465 7.63555 18.62 7.63555 16.8753 9.3824L14.4741 11.7817C14.4434 11.8128 14.4261 11.8547 14.4261 11.8984C14.4261 11.9421 14.4434 11.984 14.4741 12.0151L15.2938 12.8348C15.3578 12.8988 15.4631 12.8988 15.5271 12.8348L17.9262 10.4355C19.037 9.32459 20.9117 9.20689 22.1381 10.4355C23.3666 11.664 23.2489 13.5368 22.1381 14.6477L19.739 17.0471C19.7083 17.0781 19.691 17.12 19.691 17.1637C19.691 17.2074 19.7083 17.2493 19.739 17.2804L20.5607 18.1022C20.6247 18.1662 20.73 18.1662 20.7941 18.1022L23.1932 15.7029C24.9378 13.956 24.9378 11.1293 23.1932 9.3824ZM18.5993 13.1177C18.5683 13.0869 18.5263 13.0697 18.4827 13.0697C18.439 13.0697 18.3971 13.0869 18.366 13.1177L13.6895 17.7925C13.6588 17.8235 13.6416 17.8654 13.6416 17.9091C13.6416 17.9528 13.6588 17.9947 13.6895 18.0258L14.5071 18.8435C14.5712 18.9075 14.6765 18.9075 14.7405 18.8435L19.4149 14.1687C19.4789 14.1047 19.4789 13.9994 19.4149 13.9354L18.5993 13.1177Z" fill="#091E42"/>
</g>
</svg>
