<svg width="29" height="29" viewBox="0 0 29 29" fill="none" xmlns="http://www.w3.org/2000/svg">
<g id="text.aligncenter">
<path id="text.aligncenter_2" d="M5.97754 8.35938H22.5713C23.0107 8.35938 23.3623 8.0166 23.3623 7.57715C23.3623 7.14648 23.0107 6.79492 22.5713 6.79492H5.97754C5.53809 6.79492 5.19531 7.14648 5.19531 7.57715C5.19531 8.0166 5.53809 8.35938 5.97754 8.35938ZM9.34375 12.9648H19.1963C19.6357 12.9648 19.9873 12.6221 19.9873 12.1826C19.9873 11.7432 19.6357 11.4004 19.1963 11.4004H9.34375C8.91309 11.4004 8.56152 11.7432 8.56152 12.1826C8.56152 12.6221 8.91309 12.9648 9.34375 12.9648ZM5.97754 17.5703H22.5713C23.0107 17.5703 23.3623 17.2275 23.3623 16.7881C23.3623 16.3486 23.0107 16.0059 22.5713 16.0059H5.97754C5.53809 16.0059 5.19531 16.3486 5.19531 16.7881C5.19531 17.2275 5.53809 17.5703 5.97754 17.5703ZM9.34375 22.1758H19.1963C19.6357 22.1758 19.9873 21.8242 19.9873 21.3936C19.9873 20.9541 19.6357 20.6113 19.1963 20.6113H9.34375C8.91309 20.6113 8.56152 20.9541 8.56152 21.3936C8.56152 21.8242 8.91309 22.1758 9.34375 22.1758Z" fill="#1C1C1E"/>
</g>
</svg>
