<svg width="29" height="29" viewBox="0 0 29 29" fill="none" xmlns="http://www.w3.org/2000/svg">
<g id="text.alignleft">
<path id="text.alignleft_2" d="M5.97754 8.35938H22.5713C23.0107 8.35938 23.3623 8.0166 23.3623 7.57715C23.3623 7.14648 23.0107 6.79492 22.5713 6.79492H5.97754C5.53809 6.79492 5.19531 7.14648 5.19531 7.57715C5.19531 8.0166 5.53809 8.35938 5.97754 8.35938ZM5.97754 12.9648H15.8301C16.2695 12.9648 16.6211 12.6221 16.6211 12.1826C16.6211 11.7432 16.2695 11.4004 15.8301 11.4004H5.97754C5.53809 11.4004 5.19531 11.7432 5.19531 12.1826C5.19531 12.6221 5.53809 12.9648 5.97754 12.9648ZM5.97754 17.5703H22.5713C23.0107 17.5703 23.3623 17.2275 23.3623 16.7881C23.3623 16.3486 23.0107 16.0059 22.5713 16.0059H5.97754C5.53809 16.0059 5.19531 16.3486 5.19531 16.7881C5.19531 17.2275 5.53809 17.5703 5.97754 17.5703ZM5.97754 22.1758H15.8301C16.2695 22.1758 16.6211 21.8242 16.6211 21.3936C16.6211 20.9541 16.2695 20.6113 15.8301 20.6113H5.97754C5.53809 20.6113 5.19531 20.9541 5.19531 21.3936C5.19531 21.8242 5.53809 22.1758 5.97754 22.1758Z" fill="#1C1C1E"/>
</g>
</svg>
