<svg width="29" height="29" viewBox="0 0 29 29" fill="none" xmlns="http://www.w3.org/2000/svg">
<g id="text.alignright">
<path id="text.alignright_2" d="M5.97754 8.35938H22.5713C23.0107 8.35938 23.3623 8.0166 23.3623 7.57715C23.3623 7.14648 23.0107 6.79492 22.5713 6.79492H5.97754C5.53809 6.79492 5.19531 7.14648 5.19531 7.57715C5.19531 8.0166 5.53809 8.35938 5.97754 8.35938ZM12.7188 12.9648H22.5713C23.0107 12.9648 23.3623 12.6221 23.3623 12.1826C23.3623 11.7432 23.0107 11.4004 22.5713 11.4004H12.7188C12.2793 11.4004 11.9365 11.7432 11.9365 12.1826C11.9365 12.6221 12.2793 12.9648 12.7188 12.9648ZM5.97754 17.5703H22.5713C23.0107 17.5703 23.3623 17.2275 23.3623 16.7881C23.3623 16.3486 23.0107 16.0059 22.5713 16.0059H5.97754C5.53809 16.0059 5.19531 16.3486 5.19531 16.7881C5.19531 17.2275 5.53809 17.5703 5.97754 17.5703ZM12.7188 22.1758H22.5713C23.0107 22.1758 23.3623 21.8242 23.3623 21.3936C23.3623 20.9541 23.0107 20.6113 22.5713 20.6113H12.7188C12.2793 20.6113 11.9365 20.9541 11.9365 21.3936C11.9365 21.8242 12.2793 22.1758 12.7188 22.1758Z" fill="#1C1C1E"/>
</g>
</svg>
