<svg width="20" height="22" viewBox="0 0 20 22" fill="none" xmlns="http://www.w3.org/2000/svg">
<path fill-rule="evenodd" clip-rule="evenodd" d="M3.25266 7.98329C3.25266 6.07844 3.96382 4.2516 5.22968 2.90466C6.49555 1.55773 8.21244 0.801025 10.0027 0.801025C11.7929 0.801025 13.5098 1.55773 14.7756 2.90466C16.0415 4.2516 16.7526 6.07844 16.7526 7.98329V8.78132C16.7526 11.0403 17.5526 13.0981 18.8706 14.6548C18.9527 14.7516 19.0113 14.8684 19.0412 14.9948C19.0711 15.1213 19.0714 15.2536 19.0421 15.3803C19.0128 15.5069 18.9547 15.6239 18.8731 15.7212C18.7914 15.8184 18.6886 15.8929 18.5736 15.938C17.0296 16.5446 15.4136 16.9914 13.7427 17.2607C13.7803 17.8077 13.7115 18.3572 13.5406 18.8747C13.3697 19.3922 13.1003 19.8666 12.7494 20.2684C12.3984 20.6702 11.9733 20.9906 11.5007 21.2098C11.0281 21.4289 10.5182 21.542 10.0027 21.542C9.48714 21.542 8.97716 21.4289 8.50457 21.2098C8.03197 20.9906 7.60692 20.6702 7.25595 20.2684C6.90498 19.8666 6.63563 19.3922 6.46472 18.8747C6.29382 18.3572 6.22503 17.8077 6.26266 17.2607C4.61431 16.9949 2.99565 16.5514 1.43166 15.937C1.31679 15.8919 1.21405 15.8175 1.13242 15.7204C1.05078 15.6233 0.992735 15.5064 0.96334 15.3799C0.933944 15.2535 0.934098 15.1212 0.963787 14.9948C0.993476 14.8684 1.0518 14.7517 1.13366 14.6548C2.50046 13.0446 3.25574 10.9511 3.25266 8.78132V7.98329ZM7.75465 17.4532C7.74186 17.7758 7.79053 18.0979 7.89774 18.3999C8.00494 18.702 8.16847 18.9779 8.37848 19.211C8.58848 19.4441 8.84063 19.6295 9.11975 19.7562C9.39887 19.8829 9.69919 19.9482 10.0027 19.9482C10.3061 19.9482 10.6064 19.8829 10.8856 19.7562C11.1647 19.6295 11.4168 19.4441 11.6268 19.211C11.8368 18.9779 12.0004 18.702 12.1076 18.3999C12.2148 18.0979 12.2634 17.7758 12.2507 17.4532C10.755 17.5966 9.25029 17.5966 7.75465 17.4532Z" fill="#0047B3"/>
</svg>
